<?xml version="1.0" encoding="UTF-8" standalone="no"?>
<!-- Created with Inkscape (http://www.inkscape.org/) -->

<svg
   width="551"
   height="144"
   viewBox="0 0 145.78542 38.099999"
   version="1.1"
   id="svg1"
   xml:space="preserve"
   xmlns="http://www.w3.org/2000/svg"
   xmlns:svg="http://www.w3.org/2000/svg"><defs
     id="defs1" /><g
     id="layer1"><g
       id="g6"
       transform="translate(-1.2724936,46.827763)"><path
         style="display:inline;fill:#ffffff;fill-opacity:1"
         d="M 89.085987,-9.2811781 C 83.351895,-11.230393 79.892022,-14.9546 78.049547,-21.160798 c -0.678326,-2.284879 -0.676553,-9.896061 0.0028,-12.170833 0.720112,-2.411122 1.475923,-4.08067 2.590979,-5.723334 4.170704,-6.144148 13.136051,-8.763033 22.050314,-6.441161 4.93652,1.2858 9.09979,5.047398 11.09074,10.02071 0.38446,0.960355 0.87866,3.066828 1.13083,4.819982 0.38509,2.677249 0.40293,3.5012 0.12718,5.873415 -0.61246,5.268871 -2.24865,8.891924 -5.3232,11.787253 -1.96957,1.854769 -4.25954,3.1624131 -6.82071,3.8948425 -1.47171,0.4208694 -2.62509,0.505686 -6.800229,0.5000681 -4.684112,-0.0063 -5.163618,-0.052892 -7.0123,-0.6813227 z m 10.847917,-6.6587029 c 0.654846,-0.284348 1.686546,-1.055746 2.292666,-1.71422 2.09097,-2.27158 2.72436,-4.164403 2.92282,-8.734565 0.22129,-5.096134 -0.71355,-8.331895 -3.09524,-10.713588 -2.814398,-2.814398 -8.201555,-2.957058 -11.223302,-0.29721 -2.890928,2.544697 -4.183095,7.842159 -3.303228,13.542151 0.683524,4.428034 3.048645,7.513374 6.453159,8.418252 1.305547,0.346999 4.648248,0.06579 5.953125,-0.50082 z m 21.080986,6.9083315 c -0.0984,-0.098396 -0.1789,-1.5878075 -0.1789,-3.3098045 v -3.130902 h 4.23333 4.23333 v -11.773958 c 0,-6.475677 -0.0893,-11.772991 -0.19843,-11.771809 -0.10914,0.0012 -1.91455,0.358369 -4.01202,0.793749 -2.09748,0.435381 -3.91684,0.791602 -4.04304,0.791602 -0.12621,0 -0.19603,-1.457299 -0.15517,-3.238442 l 0.0743,-3.238442 3.96875,-0.850835 c 3.60273,-0.772367 4.40187,-0.851919 8.6651,-0.862599 l 4.69636,-0.01176 v 15.081249 15.08125 h 4.24147 4.24148 l -0.0743,3.241145 -0.0743,3.241146 -12.71953,0.068658 c -6.99575,0.037762 -12.80005,-0.011847 -12.89844,-0.110243 z"
         id="path4" /><path
         d="m 130.10367,37.713528 0.25183,-1.200612 h 1.20061 l -0.25769,1.200612 z m 5.51695,-0.860926 -0.1757,0.866782 q -0.38068,0.09956 -0.73793,0.09956 -0.63252,0 -1.00735,-0.310402 -0.28112,-0.234265 -0.28112,-0.638374 0,-0.204982 0.15228,-0.942919 l 0.7555,-3.613547 h -0.8375 l 0.16985,-0.81993 h 0.8375 l 0.32211,-1.528583 1.21233,-0.73208 -0.47439,2.260663 h 1.04248 l -0.1757,0.81993 h -1.03662 l -0.72037,3.437848 q -0.1347,0.655944 -0.1347,0.78479 0,0.187412 0.10542,0.286975 0.11127,0.09956 0.35725,0.09956 0.3514,0 0.62666,-0.07028 z m 2.42465,0.860926 -1.01905,-6.219753 h 1.03076 l 0.53296,3.426135 q 0.0878,0.562238 0.21669,1.833129 0.30455,-0.661801 0.77894,-1.51687 l 2.0791,-3.742394 h 1.11862 l -3.56083,6.219753 z"
         id="text5"
         style="font-style:italic;font-size:11.9944px;font-family:Arial;-inkscape-font-specification:'Arial, Italic';stroke-width:0.264583"
         transform="translate(1.2724936,-46.827763)"
         aria-label=".tv" /></g><g
       id="g7"
       transform="translate(-1.2724936,46.827763)"><path
         style="display:inline;fill:#ff5398;fill-opacity:1"
         d="m 1.604567,-9.2545023 c 0.083753,-0.2182559 1.185931,-2.2125527 2.4492852,-4.4317707 1.2633543,-2.219218 2.5918564,-4.570723 2.9522269,-5.225567 0.3603705,-0.654843 1.0417981,-1.845468 1.5142835,-2.645833 0.4724854,-0.800364 1.1547902,-1.990989 1.5162334,-2.645833 0.361442,-0.654844 2.719011,-4.822031 5.239041,-9.260416 2.52003,-4.438386 5.079266,-8.96276 5.687191,-10.054167 l 1.105319,-1.984375 5.548784,-0.07127 5.548784,-0.07127 0.711191,4.040022 c 0.391155,2.222012 0.881002,4.992522 1.088549,6.156689 1.1964,6.710795 1.530984,8.59827 1.735355,9.789583 0.124821,0.727604 0.830206,4.712773 1.567521,8.855931 0.737315,4.143159 1.340573,7.6285484 1.340573,7.7453105 0,0.1167622 -2.053828,0.1797177 -4.564062,0.1399011 l -4.564063,-0.072394 -0.538644,-3.3072916 -0.538643,-3.307291 h -7.231694 -7.231694 l -1.845446,3.373437 -1.845445,3.3734372 H 6.350751 c -4.2452334,0 -4.8781548,-0.052919 -4.746184,-0.3968289 z M 27.941495,-23.740485 c -0.110966,-0.763985 -0.456034,-2.996406 -0.766819,-4.960938 -0.853389,-5.394432 -1.048046,-6.70917 -1.057683,-7.143749 -0.008,-0.36006 -1.30057,1.902738 -4.685302,8.202083 -0.66462,1.236927 -1.549605,2.858763 -1.966635,3.604081 -0.417029,0.745318 -0.758235,1.429928 -0.758235,1.521354 0,0.09143 2.123196,0.166231 4.718214,0.166231 h 4.718215 z m 15.797579,12.170833 c -0.263303,-1.491589 -0.817563,-4.616979 -1.231689,-6.945313 -0.821538,-4.618921 -2.109564,-11.946401 -3.569527,-20.30677 -0.514597,-2.946796 -1.000307,-5.685234 -1.079356,-6.085416 l -0.143726,-0.727604 h 4.608476 4.608476 l 0.45294,2.711979 c 0.249118,1.491588 1.254214,7.587735 2.233548,13.546993 l 1.780607,10.835014 7.526147,-13.546993 7.526147,-13.546993 h 4.990055 4.990056 l -0.638479,1.124479 c -0.655334,1.154162 -13.166068,23.215399 -16.392186,28.905728 -0.990032,1.74625 -2.246527,3.977875 -2.792213,4.959167 l -0.992154,1.7841676 -5.699195,0.00177 -5.699195,0.00177 z"
         id="path3" /></g></g></svg>
